<svg xmlns="http://www.w3.org/2000/svg" viewBox="0 0 256 256" role="img" aria-label="Tiger avatar">
  <defs>
    <linearGradient id="bg" x1="0" y1="0" x2="1" y2="1">
      <stop offset="0%" stop-color="#f6b73c"/>
      <stop offset="100%" stop-color="#f57c00"/>
    </linearGradient>
  </defs>
  <rect width="256" height="256" rx="48" fill="url(#bg)"/>
  <path d="M56 92l32 20 40-32 40 32 32-20v96c0 32-26 58-58 58h-60c-32 0-58-26-58-58V92z" fill="#ffe2b3"/>
  <circle cx="104" cy="144" r="10" fill="#3b2f2f"/>
  <circle cx="152" cy="144" r="10" fill="#3b2f2f"/>
  <path d="M128 154l8 10-8 10-8-10z" fill="#d96c6c"/>
  <path d="M112 182c10 8 22 8 32 0" stroke="#3b2f2f" stroke-width="6" fill="none" stroke-linecap="round"/>
  <path d="M88 120l-12-10" stroke="#7a4e2c" stroke-width="6" stroke-linecap="round"/>
  <path d="M168 120l12-10" stroke="#7a4e2c" stroke-width="6" stroke-linecap="round"/>
  <path d="M116 112l-10-12" stroke="#7a4e2c" stroke-width="6" stroke-linecap="round"/>
  <path d="M140 112l10-12" stroke="#7a4e2c" stroke-width="6" stroke-linecap="round"/>
</svg>
