<svg xmlns="http://www.w3.org/2000/svg" viewBox="0 0 256 256" role="img" aria-label="Whale avatar">
  <defs>
    <linearGradient id="bg" x1="0" y1="0" x2="1" y2="1">
      <stop offset="0%" stop-color="#89f7fe"/>
      <stop offset="100%" stop-color="#66a6ff"/>
    </linearGradient>
  </defs>
  <rect width="256" height="256" rx="48" fill="url(#bg)"/>
  <path d="M52 148c0-42 36-76 80-76h20c36 0 66 26 72 60l20-8v52l-20-8c-6 34-36 60-72 60h-28c-40 0-72-32-72-72z" fill="#e1f5fe"/>
  <circle cx="118" cy="132" r="8" fill="#2b2b2b"/>
  <path d="M100 158c18 12 38 12 56 0" stroke="#2b2b2b" stroke-width="6" fill="none" stroke-linecap="round"/>
  <path d="M168 84c8-12 18-18 30-18" stroke="#e1f5fe" stroke-width="6" stroke-linecap="round"/>
  <path d="M172 100c6-10 14-14 24-14" stroke="#e1f5fe" stroke-width="6" stroke-linecap="round"/>
</svg>
