<svg xmlns="http://www.w3.org/2000/svg" viewBox="0 0 256 256" role="img" aria-label="Fox avatar">
  <defs>
    <linearGradient id="bg" x1="0" y1="0" x2="1" y2="1">
      <stop offset="0%" stop-color="#ff9966"/>
      <stop offset="100%" stop-color="#ff5e62"/>
    </linearGradient>
  </defs>
  <rect width="256" height="256" rx="48" fill="url(#bg)"/>
  <path d="M40 84l40 20 48-28 48 28 40-20v64c0 44-36 80-80 80h-32c-44 0-80-36-80-80V84z" fill="#fff1e6"/>
  <path d="M64 84l32 20-16-32z" fill="#fff1e6"/>
  <path d="M192 84l-32 20 16-32z" fill="#fff1e6"/>
  <circle cx="96" cy="140" r="10" fill="#3b2f2f"/>
  <circle cx="160" cy="140" r="10" fill="#3b2f2f"/>
  <path d="M128 150l10 12-10 12-10-12z" fill="#3b2f2f"/>
  <path d="M112 178c10 6 22 6 32 0" stroke="#3b2f2f" stroke-width="6" fill="none" stroke-linecap="round"/>
</svg>
